<svg class="logo__svg" xmlns="http://www.w3.org/2000/svg" x="0px" y="0px" viewBox="0 0 40 35">
<path class="logo__svg__part" d="M45.9,1.4c0,0-2.7,0-4.1,0H22.3c-0.4,0-0.8,0-1.2,0s-0.8,0-1.2,0c-0.1,0-0.3,0-0.3,0C8.9,2.2,0.5,11.1,0.5,21.9
	h0c0,3.6,3,6.5,6.6,6.5c3.7,0,6.6-3,6.6-6.6v0c0-4,3.3-7.2,7.3-7.2c4,0,7.3,3.3,7.3,7.3c0,3.9-3,7-6.8,7.3c0,0,0,0-0.1,0
	c-3.2,0-5.8,2.6-5.8,5.8c0,3.2,2.6,5.8,5.8,5.8c0,0,0.1,0,0.1,0c3.8,0.3,6.7,3.4,6.7,7.3c0,4-3.3,7.3-7.3,7.3c-4,0-7.3-3.3-7.3-7.3
	c0,0,0,0,0,0c0-3.7-3-6.6-6.6-6.6c-3.7,0-6.6,3-6.6,6.6h0c0,10.9,8.4,19.7,19.1,20.5c-0.2,0,2.3,0,2.7,0c5,0,10,0,14.9,0
	c2.9,0,8.6,0,8.6,0c18.6,0,33.6-15.1,33.6-33.6C79.5,16.4,64.5,1.4,45.9,1.4z M44.6,14.6c4,0,7.2,3.2,7.2,7.2S48.6,29,44.6,29
	c-4,0-7.2-3.2-7.2-7.2S40.6,14.6,44.6,14.6z M51.8,49.8L51.8,49.8c-0.4,3.1-3.5,5.6-7.2,5.6c-3.7,0-6.8-2.4-7.1-5.6h0V38.7h0
	c0-3.4,3.2-6.2,7.2-6.2c4,0,7.2,2.8,7.2,6.2h0V49.8z" fill="#E6002B" transform="scale(0.5)"></path>
</svg>